<?xml version="1.0" encoding="utf-8" standalone="no"?>
<!DOCTYPE svg PUBLIC "-//W3C//DTD SVG 1.1//EN"
  "http://www.w3.org/Graphics/SVG/1.1/DTD/svg11.dtd">
<!-- Created with matplotlib (https://matplotlib.org/) -->
<svg height="432pt" version="1.1" viewBox="0 0 432 432" width="432pt" xmlns="http://www.w3.org/2000/svg" xmlns:xlink="http://www.w3.org/1999/xlink">
 <defs>
  <style type="text/css">
*{stroke-linecap:butt;stroke-linejoin:round;}
  </style>
 </defs>
 <g id="figure_1">
  <g id="patch_1">
   <path d="M 0 432 
L 432 432 
L 432 0 
L 0 0 
z
" style="fill:#ffffff;"/>
  </g>
  <g id="axes_1">
   <g id="patch_2">
    <path d="M 47.72 390.04 
L 355.086857 390.04 
L 355.086857 77.900571 
L 47.72 77.900571 
z
" style="fill:#ffffff;"/>
   </g>
   <g id="matplotlib.axis_1">
    <g id="xtick_1">
     <g id="text_1">
      <!-- −20 -->
      <defs>
       <path d="M 10.59375 35.5 
L 73.1875 35.5 
L 73.1875 27.203125 
L 10.59375 27.203125 
z
" id="DejaVuSans-8722"/>
       <path d="M 19.1875 8.296875 
L 53.609375 8.296875 
L 53.609375 0 
L 7.328125 0 
L 7.328125 8.296875 
Q 12.9375 14.109375 22.625 23.890625 
Q 32.328125 33.6875 34.8125 36.53125 
Q 39.546875 41.84375 41.421875 45.53125 
Q 43.3125 49.21875 43.3125 52.78125 
Q 43.3125 58.59375 39.234375 62.25 
Q 35.15625 65.921875 28.609375 65.921875 
Q 23.96875 65.921875 18.8125 64.3125 
Q 13.671875 62.703125 7.8125 59.421875 
L 7.8125 69.390625 
Q 13.765625 71.78125 18.9375 73 
Q 24.125 74.21875 28.421875 74.21875 
Q 39.75 74.21875 46.484375 68.546875 
Q 53.21875 62.890625 53.21875 53.421875 
Q 53.21875 48.921875 51.53125 44.890625 
Q 49.859375 40.875 45.40625 35.40625 
Q 44.1875 33.984375 37.640625 27.21875 
Q 31.109375 20.453125 19.1875 8.296875 
z
" id="DejaVuSans-50"/>
       <path d="M 31.78125 66.40625 
Q 24.171875 66.40625 20.328125 58.90625 
Q 16.5 51.421875 16.5 36.375 
Q 16.5 21.390625 20.328125 13.890625 
Q 24.171875 6.390625 31.78125 6.390625 
Q 39.453125 6.390625 43.28125 13.890625 
Q 47.125 21.390625 47.125 36.375 
Q 47.125 51.421875 43.28125 58.90625 
Q 39.453125 66.40625 31.78125 66.40625 
z
M 31.78125 74.21875 
Q 44.046875 74.21875 50.515625 64.515625 
Q 56.984375 54.828125 56.984375 36.375 
Q 56.984375 17.96875 50.515625 8.265625 
Q 44.046875 -1.421875 31.78125 -1.421875 
Q 19.53125 -1.421875 13.0625 8.265625 
Q 6.59375 17.96875 6.59375 36.375 
Q 6.59375 54.828125 13.0625 64.515625 
Q 19.53125 74.21875 31.78125 74.21875 
z
" id="DejaVuSans-48"/>
      </defs>
      <g style="fill:#262626;" transform="translate(40.900554 404.638437)scale(0.1 -0.1)">
       <use xlink:href="#DejaVuSans-8722"/>
       <use x="83.789062" xlink:href="#DejaVuSans-50"/>
       <use x="147.412109" xlink:href="#DejaVuSans-48"/>
      </g>
     </g>
    </g>
    <g id="xtick_2">
     <g id="text_2">
      <!-- −10 -->
      <defs>
       <path d="M 12.40625 8.296875 
L 28.515625 8.296875 
L 28.515625 63.921875 
L 10.984375 60.40625 
L 10.984375 69.390625 
L 28.421875 72.90625 
L 38.28125 72.90625 
L 38.28125 8.296875 
L 54.390625 8.296875 
L 54.390625 0 
L 12.40625 0 
z
" id="DejaVuSans-49"/>
      </defs>
      <g style="fill:#262626;" transform="translate(101.949981 404.638437)scale(0.1 -0.1)">
       <use xlink:href="#DejaVuSans-8722"/>
       <use x="83.789062" xlink:href="#DejaVuSans-49"/>
       <use x="147.412109" xlink:href="#DejaVuSans-48"/>
      </g>
     </g>
    </g>
    <g id="xtick_3">
     <g id="text_3">
      <!-- 0 -->
      <g style="fill:#262626;" transform="translate(170.370503 404.638437)scale(0.1 -0.1)">
       <use xlink:href="#DejaVuSans-48"/>
      </g>
     </g>
    </g>
    <g id="xtick_4">
     <g id="text_4">
      <!-- 10 -->
      <g style="fill:#262626;" transform="translate(228.23868 404.638437)scale(0.1 -0.1)">
       <use xlink:href="#DejaVuSans-49"/>
       <use x="63.623047" xlink:href="#DejaVuSans-48"/>
      </g>
     </g>
    </g>
    <g id="xtick_5">
     <g id="text_5">
      <!-- 20 -->
      <g style="fill:#262626;" transform="translate(289.288108 404.638437)scale(0.1 -0.1)">
       <use xlink:href="#DejaVuSans-50"/>
       <use x="63.623047" xlink:href="#DejaVuSans-48"/>
      </g>
     </g>
    </g>
    <g id="text_6">
     <!-- PC1 -->
     <defs>
      <path d="M 19.671875 64.796875 
L 19.671875 37.40625 
L 32.078125 37.40625 
Q 38.96875 37.40625 42.71875 40.96875 
Q 46.484375 44.53125 46.484375 51.125 
Q 46.484375 57.671875 42.71875 61.234375 
Q 38.96875 64.796875 32.078125 64.796875 
z
M 9.8125 72.90625 
L 32.078125 72.90625 
Q 44.34375 72.90625 50.609375 67.359375 
Q 56.890625 61.8125 56.890625 51.125 
Q 56.890625 40.328125 50.609375 34.8125 
Q 44.34375 29.296875 32.078125 29.296875 
L 19.671875 29.296875 
L 19.671875 0 
L 9.8125 0 
z
" id="DejaVuSans-80"/>
      <path d="M 64.40625 67.28125 
L 64.40625 56.890625 
Q 59.421875 61.53125 53.78125 63.8125 
Q 48.140625 66.109375 41.796875 66.109375 
Q 29.296875 66.109375 22.65625 58.46875 
Q 16.015625 50.828125 16.015625 36.375 
Q 16.015625 21.96875 22.65625 14.328125 
Q 29.296875 6.6875 41.796875 6.6875 
Q 48.140625 6.6875 53.78125 8.984375 
Q 59.421875 11.28125 64.40625 15.921875 
L 64.40625 5.609375 
Q 59.234375 2.09375 53.4375 0.328125 
Q 47.65625 -1.421875 41.21875 -1.421875 
Q 24.65625 -1.421875 15.125 8.703125 
Q 5.609375 18.84375 5.609375 36.375 
Q 5.609375 53.953125 15.125 64.078125 
Q 24.65625 74.21875 41.21875 74.21875 
Q 47.75 74.21875 53.53125 72.484375 
Q 59.328125 70.75 64.40625 67.28125 
z
" id="DejaVuSans-67"/>
     </defs>
     <g style="fill:#262626;" transform="translate(191.715929 418.316562)scale(0.1 -0.1)">
      <use xlink:href="#DejaVuSans-80"/>
      <use x="60.302734" xlink:href="#DejaVuSans-67"/>
      <use x="130.126953" xlink:href="#DejaVuSans-49"/>
     </g>
    </g>
   </g>
   <g id="matplotlib.axis_2">
    <g id="ytick_1">
     <g id="text_7">
      <!-- −15 -->
      <defs>
       <path d="M 10.796875 72.90625 
L 49.515625 72.90625 
L 49.515625 64.59375 
L 19.828125 64.59375 
L 19.828125 46.734375 
Q 21.96875 47.46875 24.109375 47.828125 
Q 26.265625 48.1875 28.421875 48.1875 
Q 40.625 48.1875 47.75 41.5 
Q 54.890625 34.8125 54.890625 23.390625 
Q 54.890625 11.625 47.5625 5.09375 
Q 40.234375 -1.421875 26.90625 -1.421875 
Q 22.3125 -1.421875 17.546875 -0.640625 
Q 12.796875 0.140625 7.71875 1.703125 
L 7.71875 11.625 
Q 12.109375 9.234375 16.796875 8.0625 
Q 21.484375 6.890625 26.703125 6.890625 
Q 35.15625 6.890625 40.078125 11.328125 
Q 45.015625 15.765625 45.015625 23.390625 
Q 45.015625 31 40.078125 35.4375 
Q 35.15625 39.890625 26.703125 39.890625 
Q 22.75 39.890625 18.8125 39.015625 
Q 14.890625 38.140625 10.796875 36.28125 
z
" id="DejaVuSans-53"/>
      </defs>
      <g style="fill:#262626;" transform="translate(19.615313 367.021598)scale(0.1 -0.1)">
       <use xlink:href="#DejaVuSans-8722"/>
       <use x="83.789062" xlink:href="#DejaVuSans-49"/>
       <use x="147.412109" xlink:href="#DejaVuSans-53"/>
      </g>
     </g>
    </g>
    <g id="ytick_2">
     <g id="text_8">
      <!-- −10 -->
      <g style="fill:#262626;" transform="translate(19.615313 330.422678)scale(0.1 -0.1)">
       <use xlink:href="#DejaVuSans-8722"/>
       <use x="83.789062" xlink:href="#DejaVuSans-49"/>
       <use x="147.412109" xlink:href="#DejaVuSans-48"/>
      </g>
     </g>
    </g>
    <g id="ytick_3">
     <g id="text_9">
      <!-- −5 -->
      <g style="fill:#262626;" transform="translate(25.977813 293.823757)scale(0.1 -0.1)">
       <use xlink:href="#DejaVuSans-8722"/>
       <use x="83.789062" xlink:href="#DejaVuSans-53"/>
      </g>
     </g>
    </g>
    <g id="ytick_4">
     <g id="text_10">
      <!-- 0 -->
      <g style="fill:#262626;" transform="translate(34.3575 257.224836)scale(0.1 -0.1)">
       <use xlink:href="#DejaVuSans-48"/>
      </g>
     </g>
    </g>
    <g id="ytick_5">
     <g id="text_11">
      <!-- 5 -->
      <g style="fill:#262626;" transform="translate(34.3575 220.625916)scale(0.1 -0.1)">
       <use xlink:href="#DejaVuSans-53"/>
      </g>
     </g>
    </g>
    <g id="ytick_6">
     <g id="text_12">
      <!-- 10 -->
      <g style="fill:#262626;" transform="translate(27.995 184.026995)scale(0.1 -0.1)">
       <use xlink:href="#DejaVuSans-49"/>
       <use x="63.623047" xlink:href="#DejaVuSans-48"/>
      </g>
     </g>
    </g>
    <g id="ytick_7">
     <g id="text_13">
      <!-- 15 -->
      <g style="fill:#262626;" transform="translate(27.995 147.428074)scale(0.1 -0.1)">
       <use xlink:href="#DejaVuSans-49"/>
       <use x="63.623047" xlink:href="#DejaVuSans-53"/>
      </g>
     </g>
    </g>
    <g id="ytick_8">
     <g id="text_14">
      <!-- 20 -->
      <g style="fill:#262626;" transform="translate(27.995 110.829153)scale(0.1 -0.1)">
       <use xlink:href="#DejaVuSans-50"/>
       <use x="63.623047" xlink:href="#DejaVuSans-48"/>
      </g>
     </g>
    </g>
    <g id="text_15">
     <!-- PC2 -->
     <g style="fill:#262626;" transform="translate(13.535625 243.657786)rotate(-90)scale(0.1 -0.1)">
      <use xlink:href="#DejaVuSans-80"/>
      <use x="60.302734" xlink:href="#DejaVuSans-67"/>
      <use x="130.126953" xlink:href="#DejaVuSans-50"/>
     </g>
    </g>
   </g>
   <g id="PathCollection_1">
    <defs>
     <path d="M 0 1.581139 
C 0.419323 1.581139 0.821528 1.41454 1.118034 1.118034 
C 1.41454 0.821528 1.581139 0.419323 1.581139 0 
C 1.581139 -0.419323 1.41454 -0.821528 1.118034 -1.118034 
C 0.821528 -1.41454 0.419323 -1.581139 0 -1.581139 
C -0.419323 -1.581139 -0.821528 -1.41454 -1.118034 -1.118034 
C -1.41454 -0.821528 -1.581139 -0.419323 -1.581139 0 
C -1.581139 0.419323 -1.41454 0.821528 -1.118034 1.118034 
C -0.821528 1.41454 -0.419323 1.581139 0 1.581139 
z
" id="me610ef5f11"/>
    </defs>
    <g clip-path="url(#p30ea0e8749)">
     <use style="fill:#87cefa;" x="144.50869" xlink:href="#me610ef5f11" y="192.466558"/>
     <use style="fill:#87cefa;" x="264.421929" xlink:href="#me610ef5f11" y="271.323215"/>
     <use style="fill:#87cefa;" x="131.610286" xlink:href="#me610ef5f11" y="277.549555"/>
     <use style="fill:#87cefa;" x="167.781938" xlink:href="#me610ef5f11" y="181.390126"/>
     <use style="fill:#87cefa;" x="106.326928" xlink:href="#me610ef5f11" y="281.858156"/>
     <use style="fill:#87cefa;" x="170.648497" xlink:href="#me610ef5f11" y="269.655338"/>
     <use style="fill:#87cefa;" x="178.747532" xlink:href="#me610ef5f11" y="280.597612"/>
     <use style="fill:#87cefa;" x="226.07378" xlink:href="#me610ef5f11" y="295.238349"/>
     <use style="fill:#87cefa;" x="278.702777" xlink:href="#me610ef5f11" y="259.444428"/>
     <use style="fill:#87cefa;" x="166.015387" xlink:href="#me610ef5f11" y="286.990904"/>
     <use style="fill:#87cefa;" x="172.718084" xlink:href="#me610ef5f11" y="293.297394"/>
     <use style="fill:#87cefa;" x="172.432793" xlink:href="#me610ef5f11" y="285.813598"/>
     <use style="fill:#87cefa;" x="242.425031" xlink:href="#me610ef5f11" y="243.283287"/>
     <use style="fill:#87cefa;" x="188.530915" xlink:href="#me610ef5f11" y="175.192212"/>
     <use style="fill:#87cefa;" x="186.002678" xlink:href="#me610ef5f11" y="203.877187"/>
     <use style="fill:#87cefa;" x="127.948107" xlink:href="#me610ef5f11" y="293.549838"/>
     <use style="fill:#87cefa;" x="193.85761" xlink:href="#me610ef5f11" y="281.894785"/>
     <use style="fill:#87cefa;" x="196.545606" xlink:href="#me610ef5f11" y="211.449849"/>
     <use style="fill:#87cefa;" x="156.510503" xlink:href="#me610ef5f11" y="256.236216"/>
     <use style="fill:#87cefa;" x="145.268755" xlink:href="#me610ef5f11" y="283.41382"/>
     <use style="fill:#87cefa;" x="125.831357" xlink:href="#me610ef5f11" y="266.858195"/>
     <use style="fill:#87cefa;" x="228.611556" xlink:href="#me610ef5f11" y="199.999699"/>
     <use style="fill:#87cefa;" x="165.393907" xlink:href="#me610ef5f11" y="148.275521"/>
     <use style="fill:#87cefa;" x="182.508395" xlink:href="#me610ef5f11" y="284.750478"/>
     <use style="fill:#87cefa;" x="157.577854" xlink:href="#me610ef5f11" y="268.901916"/>
     <use style="fill:#87cefa;" x="258.271404" xlink:href="#me610ef5f11" y="297.999958"/>
     <use style="fill:#87cefa;" x="191.412632" xlink:href="#me610ef5f11" y="308.818657"/>
     <use style="fill:#87cefa;" x="108.689344" xlink:href="#me610ef5f11" y="248.86105"/>
     <use style="fill:#87cefa;" x="150.925507" xlink:href="#me610ef5f11" y="290.632834"/>
     <use style="fill:#87cefa;" x="191.274267" xlink:href="#me610ef5f11" y="253.559344"/>
     <use style="fill:#87cefa;" x="144.549637" xlink:href="#me610ef5f11" y="194.89191"/>
     <use style="fill:#87cefa;" x="148.344524" xlink:href="#me610ef5f11" y="235.538356"/>
     <use style="fill:#87cefa;" x="148.556465" xlink:href="#me610ef5f11" y="283.497031"/>
     <use style="fill:#87cefa;" x="235.65708" xlink:href="#me610ef5f11" y="297.892724"/>
     <use style="fill:#87cefa;" x="192.543961" xlink:href="#me610ef5f11" y="292.312583"/>
     <use style="fill:#87cefa;" x="171.410362" xlink:href="#me610ef5f11" y="243.051354"/>
     <use style="fill:#87cefa;" x="197.090774" xlink:href="#me610ef5f11" y="279.182032"/>
     <use style="fill:#87cefa;" x="174.397158" xlink:href="#me610ef5f11" y="288.643843"/>
     <use style="fill:#87cefa;" x="109.974767" xlink:href="#me610ef5f11" y="271.003668"/>
     <use style="fill:#87cefa;" x="176.014158" xlink:href="#me610ef5f11" y="299.264701"/>
     <use style="fill:#87cefa;" x="213.737529" xlink:href="#me610ef5f11" y="261.904693"/>
     <use style="fill:#87cefa;" x="157.470165" xlink:href="#me610ef5f11" y="311.092702"/>
     <use style="fill:#87cefa;" x="206.456808" xlink:href="#me610ef5f11" y="225.937174"/>
     <use style="fill:#87cefa;" x="209.354487" xlink:href="#me610ef5f11" y="250.765692"/>
     <use style="fill:#87cefa;" x="170.699789" xlink:href="#me610ef5f11" y="287.333485"/>
     <use style="fill:#87cefa;" x="158.346004" xlink:href="#me610ef5f11" y="223.18661"/>
     <use style="fill:#87cefa;" x="145.869443" xlink:href="#me610ef5f11" y="226.720397"/>
     <use style="fill:#87cefa;" x="148.752658" xlink:href="#me610ef5f11" y="223.931441"/>
     <use style="fill:#87cefa;" x="153.792956" xlink:href="#me610ef5f11" y="295.193673"/>
     <use style="fill:#87cefa;" x="160.391818" xlink:href="#me610ef5f11" y="175.498997"/>
     <use style="fill:#87cefa;" x="172.830222" xlink:href="#me610ef5f11" y="261.830929"/>
     <use style="fill:#87cefa;" x="158.684226" xlink:href="#me610ef5f11" y="211.604442"/>
     <use style="fill:#87cefa;" x="271.154608" xlink:href="#me610ef5f11" y="290.907031"/>
     <use style="fill:#87cefa;" x="175.772352" xlink:href="#me610ef5f11" y="165.891011"/>
     <use style="fill:#87cefa;" x="188.993119" xlink:href="#me610ef5f11" y="145.659993"/>
     <use style="fill:#87cefa;" x="214.547135" xlink:href="#me610ef5f11" y="268.987242"/>
     <use style="fill:#87cefa;" x="159.774283" xlink:href="#me610ef5f11" y="299.547712"/>
     <use style="fill:#87cefa;" x="169.844699" xlink:href="#me610ef5f11" y="212.055577"/>
     <use style="fill:#87cefa;" x="131.548593" xlink:href="#me610ef5f11" y="287.762386"/>
     <use style="fill:#87cefa;" x="163.530151" xlink:href="#me610ef5f11" y="285.130829"/>
     <use style="fill:#87cefa;" x="264.166386" xlink:href="#me610ef5f11" y="286.548524"/>
     <use style="fill:#87cefa;" x="124.713289" xlink:href="#me610ef5f11" y="268.977703"/>
     <use style="fill:#87cefa;" x="175.45328" xlink:href="#me610ef5f11" y="202.055101"/>
     <use style="fill:#87cefa;" x="145.906784" xlink:href="#me610ef5f11" y="286.338651"/>
     <use style="fill:#87cefa;" x="179.576736" xlink:href="#me610ef5f11" y="265.49651"/>
     <use style="fill:#87cefa;" x="193.58712" xlink:href="#me610ef5f11" y="251.394704"/>
     <use style="fill:#87cefa;" x="112.373007" xlink:href="#me610ef5f11" y="247.16192"/>
     <use style="fill:#87cefa;" x="122.162618" xlink:href="#me610ef5f11" y="288.03973"/>
     <use style="fill:#87cefa;" x="184.770805" xlink:href="#me610ef5f11" y="293.12642"/>
     <use style="fill:#87cefa;" x="139.626012" xlink:href="#me610ef5f11" y="239.581261"/>
     <use style="fill:#87cefa;" x="132.510728" xlink:href="#me610ef5f11" y="286.96597"/>
     <use style="fill:#87cefa;" x="131.87906" xlink:href="#me610ef5f11" y="210.933492"/>
     <use style="fill:#87cefa;" x="134.184203" xlink:href="#me610ef5f11" y="256.631223"/>
     <use style="fill:#87cefa;" x="167.88154" xlink:href="#me610ef5f11" y="281.345682"/>
     <use style="fill:#87cefa;" x="189.229247" xlink:href="#me610ef5f11" y="260.261167"/>
     <use style="fill:#87cefa;" x="215.153832" xlink:href="#me610ef5f11" y="211.039749"/>
     <use style="fill:#87cefa;" x="126.953743" xlink:href="#me610ef5f11" y="286.782399"/>
     <use style="fill:#87cefa;" x="261.877649" xlink:href="#me610ef5f11" y="295.742322"/>
     <use style="fill:#87cefa;" x="132.802735" xlink:href="#me610ef5f11" y="251.087249"/>
     <use style="fill:#87cefa;" x="134.620365" xlink:href="#me610ef5f11" y="271.708122"/>
     <use style="fill:#87cefa;" x="199.431988" xlink:href="#me610ef5f11" y="241.780286"/>
     <use style="fill:#87cefa;" x="147.26223" xlink:href="#me610ef5f11" y="255.920034"/>
     <use style="fill:#87cefa;" x="132.730969" xlink:href="#me610ef5f11" y="228.53046"/>
     <use style="fill:#87cefa;" x="188.255547" xlink:href="#me610ef5f11" y="145.783989"/>
    </g>
   </g>
   <g id="PathCollection_2">
    <defs>
     <path d="M 0 1.581139 
C 0.419323 1.581139 0.821528 1.41454 1.118034 1.118034 
C 1.41454 0.821528 1.581139 0.419323 1.581139 0 
C 1.581139 -0.419323 1.41454 -0.821528 1.118034 -1.118034 
C 0.821528 -1.41454 0.419323 -1.581139 0 -1.581139 
C -0.419323 -1.581139 -0.821528 -1.41454 -1.118034 -1.118034 
C -1.41454 -0.821528 -1.581139 -0.419323 -1.581139 0 
C -1.581139 0.419323 -1.41454 0.821528 -1.118034 1.118034 
C -0.821528 1.41454 -0.419323 1.581139 0 1.581139 
z
" id="med751b82ef"/>
    </defs>
    <g clip-path="url(#p30ea0e8749)">
     <use style="fill:#000080;" x="297.726381" xlink:href="#med751b82ef" y="241.442722"/>
     <use style="fill:#000080;" x="234.040753" xlink:href="#med751b82ef" y="245.517552"/>
     <use style="fill:#000080;" x="187.765124" xlink:href="#med751b82ef" y="236.447359"/>
     <use style="fill:#000080;" x="195.271528" xlink:href="#med751b82ef" y="284.946453"/>
     <use style="fill:#000080;" x="124.66317" xlink:href="#med751b82ef" y="285.788197"/>
     <use style="fill:#000080;" x="170.956923" xlink:href="#med751b82ef" y="166.376247"/>
     <use style="fill:#000080;" x="137.979449" xlink:href="#med751b82ef" y="229.486035"/>
     <use style="fill:#000080;" x="115.492994" xlink:href="#med751b82ef" y="303.393447"/>
     <use style="fill:#000080;" x="142.469054" xlink:href="#med751b82ef" y="265.675752"/>
     <use style="fill:#000080;" x="143.9598" xlink:href="#med751b82ef" y="278.300844"/>
     <use style="fill:#000080;" x="184.101786" xlink:href="#med751b82ef" y="280.414424"/>
     <use style="fill:#000080;" x="225.590889" xlink:href="#med751b82ef" y="251.414433"/>
     <use style="fill:#000080;" x="175.051748" xlink:href="#med751b82ef" y="253.003884"/>
     <use style="fill:#000080;" x="177.567452" xlink:href="#med751b82ef" y="292.287276"/>
     <use style="fill:#000080;" x="189.733299" xlink:href="#med751b82ef" y="287.641556"/>
     <use style="fill:#000080;" x="173.59529" xlink:href="#med751b82ef" y="229.357976"/>
     <use style="fill:#000080;" x="224.789165" xlink:href="#med751b82ef" y="300.566206"/>
     <use style="fill:#000080;" x="180.256449" xlink:href="#med751b82ef" y="236.532049"/>
     <use style="fill:#000080;" x="152.234672" xlink:href="#med751b82ef" y="169.649204"/>
     <use style="fill:#000080;" x="165.791094" xlink:href="#med751b82ef" y="274.891555"/>
     <use style="fill:#000080;" x="165.399257" xlink:href="#med751b82ef" y="265.505146"/>
     <use style="fill:#000080;" x="120.47766" xlink:href="#med751b82ef" y="270.16638"/>
     <use style="fill:#000080;" x="195.855621" xlink:href="#med751b82ef" y="241.408651"/>
     <use style="fill:#000080;" x="194.269758" xlink:href="#med751b82ef" y="245.94936"/>
     <use style="fill:#000080;" x="205.032848" xlink:href="#med751b82ef" y="215.721154"/>
     <use style="fill:#000080;" x="188.619503" xlink:href="#med751b82ef" y="191.309319"/>
     <use style="fill:#000080;" x="161.478321" xlink:href="#med751b82ef" y="233.642295"/>
     <use style="fill:#000080;" x="125.838228" xlink:href="#med751b82ef" y="260.742287"/>
     <use style="fill:#000080;" x="160.704175" xlink:href="#med751b82ef" y="253.090371"/>
     <use style="fill:#000080;" x="134.161784" xlink:href="#med751b82ef" y="229.427345"/>
     <use style="fill:#000080;" x="162.452774" xlink:href="#med751b82ef" y="285.044172"/>
     <use style="fill:#000080;" x="115.76293" xlink:href="#med751b82ef" y="299.923335"/>
     <use style="fill:#000080;" x="145.286818" xlink:href="#med751b82ef" y="319.834476"/>
     <use style="fill:#000080;" x="157.552981" xlink:href="#med751b82ef" y="182.630678"/>
     <use style="fill:#000080;" x="215.807913" xlink:href="#med751b82ef" y="264.820594"/>
     <use style="fill:#000080;" x="161.467839" xlink:href="#med751b82ef" y="159.567268"/>
     <use style="fill:#000080;" x="190.336079" xlink:href="#med751b82ef" y="225.566994"/>
     <use style="fill:#000080;" x="163.688252" xlink:href="#med751b82ef" y="159.511037"/>
     <use style="fill:#000080;" x="253.76848" xlink:href="#med751b82ef" y="266.560691"/>
     <use style="fill:#000080;" x="164.256164" xlink:href="#med751b82ef" y="278.815267"/>
     <use style="fill:#000080;" x="174.560425" xlink:href="#med751b82ef" y="211.182186"/>
     <use style="fill:#000080;" x="133.02426" xlink:href="#med751b82ef" y="267.77062"/>
     <use style="fill:#000080;" x="182.103094" xlink:href="#med751b82ef" y="287.78206"/>
     <use style="fill:#000080;" x="150.888584" xlink:href="#med751b82ef" y="288.977061"/>
     <use style="fill:#000080;" x="221.571461" xlink:href="#med751b82ef" y="271.189766"/>
    </g>
   </g>
   <g id="patch_3">
    <path d="M 47.72 390.04 
L 47.72 77.900571 
" style="fill:none;stroke:#262626;stroke-linecap:square;stroke-linejoin:miter;stroke-width:0.8;"/>
   </g>
   <g id="patch_4">
    <path d="M 47.72 390.04 
L 355.086857 390.04 
" style="fill:none;stroke:#262626;stroke-linecap:square;stroke-linejoin:miter;stroke-width:0.8;"/>
   </g>
   <g id="legend_1">
    <g id="patch_5">
     <path d="M 216.61342 115.256821 
L 348.086857 115.256821 
Q 350.086857 115.256821 350.086857 113.256821 
L 350.086857 84.900571 
Q 350.086857 82.900571 348.086857 82.900571 
L 216.61342 82.900571 
Q 214.61342 82.900571 214.61342 84.900571 
L 214.61342 113.256821 
Q 214.61342 115.256821 216.61342 115.256821 
z
" style="fill:#ffffff;opacity:0.8;stroke:#cccccc;stroke-linejoin:miter;"/>
    </g>
    <g id="PathCollection_3">
     <g>
      <use style="fill:#87cefa;" x="228.61342" xlink:href="#me610ef5f11" y="91.874009"/>
     </g>
    </g>
    <g id="text_16">
     <!-- Mutant morphology -->
     <defs>
      <path d="M 9.8125 72.90625 
L 24.515625 72.90625 
L 43.109375 23.296875 
L 61.8125 72.90625 
L 76.515625 72.90625 
L 76.515625 0 
L 66.890625 0 
L 66.890625 64.015625 
L 48.09375 14.015625 
L 38.1875 14.015625 
L 19.390625 64.015625 
L 19.390625 0 
L 9.8125 0 
z
" id="DejaVuSans-77"/>
      <path d="M 8.5 21.578125 
L 8.5 54.6875 
L 17.484375 54.6875 
L 17.484375 21.921875 
Q 17.484375 14.15625 20.5 10.265625 
Q 23.53125 6.390625 29.59375 6.390625 
Q 36.859375 6.390625 41.078125 11.03125 
Q 45.3125 15.671875 45.3125 23.6875 
L 45.3125 54.6875 
L 54.296875 54.6875 
L 54.296875 0 
L 45.3125 0 
L 45.3125 8.40625 
Q 42.046875 3.421875 37.71875 1 
Q 33.40625 -1.421875 27.6875 -1.421875 
Q 18.265625 -1.421875 13.375 4.4375 
Q 8.5 10.296875 8.5 21.578125 
z
M 31.109375 56 
z
" id="DejaVuSans-117"/>
      <path d="M 18.3125 70.21875 
L 18.3125 54.6875 
L 36.8125 54.6875 
L 36.8125 47.703125 
L 18.3125 47.703125 
L 18.3125 18.015625 
Q 18.3125 11.328125 20.140625 9.421875 
Q 21.96875 7.515625 27.59375 7.515625 
L 36.8125 7.515625 
L 36.8125 0 
L 27.59375 0 
Q 17.1875 0 13.234375 3.875 
Q 9.28125 7.765625 9.28125 18.015625 
L 9.28125 47.703125 
L 2.6875 47.703125 
L 2.6875 54.6875 
L 9.28125 54.6875 
L 9.28125 70.21875 
z
" id="DejaVuSans-116"/>
      <path d="M 34.28125 27.484375 
Q 23.390625 27.484375 19.1875 25 
Q 14.984375 22.515625 14.984375 16.5 
Q 14.984375 11.71875 18.140625 8.90625 
Q 21.296875 6.109375 26.703125 6.109375 
Q 34.1875 6.109375 38.703125 11.40625 
Q 43.21875 16.703125 43.21875 25.484375 
L 43.21875 27.484375 
z
M 52.203125 31.203125 
L 52.203125 0 
L 43.21875 0 
L 43.21875 8.296875 
Q 40.140625 3.328125 35.546875 0.953125 
Q 30.953125 -1.421875 24.3125 -1.421875 
Q 15.921875 -1.421875 10.953125 3.296875 
Q 6 8.015625 6 15.921875 
Q 6 25.140625 12.171875 29.828125 
Q 18.359375 34.515625 30.609375 34.515625 
L 43.21875 34.515625 
L 43.21875 35.40625 
Q 43.21875 41.609375 39.140625 45 
Q 35.0625 48.390625 27.6875 48.390625 
Q 23 48.390625 18.546875 47.265625 
Q 14.109375 46.140625 10.015625 43.890625 
L 10.015625 52.203125 
Q 14.9375 54.109375 19.578125 55.046875 
Q 24.21875 56 28.609375 56 
Q 40.484375 56 46.34375 49.84375 
Q 52.203125 43.703125 52.203125 31.203125 
z
" id="DejaVuSans-97"/>
      <path d="M 54.890625 33.015625 
L 54.890625 0 
L 45.90625 0 
L 45.90625 32.71875 
Q 45.90625 40.484375 42.875 44.328125 
Q 39.84375 48.1875 33.796875 48.1875 
Q 26.515625 48.1875 22.3125 43.546875 
Q 18.109375 38.921875 18.109375 30.90625 
L 18.109375 0 
L 9.078125 0 
L 9.078125 54.6875 
L 18.109375 54.6875 
L 18.109375 46.1875 
Q 21.34375 51.125 25.703125 53.5625 
Q 30.078125 56 35.796875 56 
Q 45.21875 56 50.046875 50.171875 
Q 54.890625 44.34375 54.890625 33.015625 
z
" id="DejaVuSans-110"/>
      <path id="DejaVuSans-32"/>
      <path d="M 52 44.1875 
Q 55.375 50.25 60.0625 53.125 
Q 64.75 56 71.09375 56 
Q 79.640625 56 84.28125 50.015625 
Q 88.921875 44.046875 88.921875 33.015625 
L 88.921875 0 
L 79.890625 0 
L 79.890625 32.71875 
Q 79.890625 40.578125 77.09375 44.375 
Q 74.3125 48.1875 68.609375 48.1875 
Q 61.625 48.1875 57.5625 43.546875 
Q 53.515625 38.921875 53.515625 30.90625 
L 53.515625 0 
L 44.484375 0 
L 44.484375 32.71875 
Q 44.484375 40.625 41.703125 44.40625 
Q 38.921875 48.1875 33.109375 48.1875 
Q 26.21875 48.1875 22.15625 43.53125 
Q 18.109375 38.875 18.109375 30.90625 
L 18.109375 0 
L 9.078125 0 
L 9.078125 54.6875 
L 18.109375 54.6875 
L 18.109375 46.1875 
Q 21.1875 51.21875 25.484375 53.609375 
Q 29.78125 56 35.6875 56 
Q 41.65625 56 45.828125 52.96875 
Q 50 49.953125 52 44.1875 
z
" id="DejaVuSans-109"/>
      <path d="M 30.609375 48.390625 
Q 23.390625 48.390625 19.1875 42.75 
Q 14.984375 37.109375 14.984375 27.296875 
Q 14.984375 17.484375 19.15625 11.84375 
Q 23.34375 6.203125 30.609375 6.203125 
Q 37.796875 6.203125 41.984375 11.859375 
Q 46.1875 17.53125 46.1875 27.296875 
Q 46.1875 37.015625 41.984375 42.703125 
Q 37.796875 48.390625 30.609375 48.390625 
z
M 30.609375 56 
Q 42.328125 56 49.015625 48.375 
Q 55.71875 40.765625 55.71875 27.296875 
Q 55.71875 13.875 49.015625 6.21875 
Q 42.328125 -1.421875 30.609375 -1.421875 
Q 18.84375 -1.421875 12.171875 6.21875 
Q 5.515625 13.875 5.515625 27.296875 
Q 5.515625 40.765625 12.171875 48.375 
Q 18.84375 56 30.609375 56 
z
" id="DejaVuSans-111"/>
      <path d="M 41.109375 46.296875 
Q 39.59375 47.171875 37.8125 47.578125 
Q 36.03125 48 33.890625 48 
Q 26.265625 48 22.1875 43.046875 
Q 18.109375 38.09375 18.109375 28.8125 
L 18.109375 0 
L 9.078125 0 
L 9.078125 54.6875 
L 18.109375 54.6875 
L 18.109375 46.1875 
Q 20.953125 51.171875 25.484375 53.578125 
Q 30.03125 56 36.53125 56 
Q 37.453125 56 38.578125 55.875 
Q 39.703125 55.765625 41.0625 55.515625 
z
" id="DejaVuSans-114"/>
      <path d="M 18.109375 8.203125 
L 18.109375 -20.796875 
L 9.078125 -20.796875 
L 9.078125 54.6875 
L 18.109375 54.6875 
L 18.109375 46.390625 
Q 20.953125 51.265625 25.265625 53.625 
Q 29.59375 56 35.59375 56 
Q 45.5625 56 51.78125 48.09375 
Q 58.015625 40.1875 58.015625 27.296875 
Q 58.015625 14.40625 51.78125 6.484375 
Q 45.5625 -1.421875 35.59375 -1.421875 
Q 29.59375 -1.421875 25.265625 0.953125 
Q 20.953125 3.328125 18.109375 8.203125 
z
M 48.6875 27.296875 
Q 48.6875 37.203125 44.609375 42.84375 
Q 40.53125 48.484375 33.40625 48.484375 
Q 26.265625 48.484375 22.1875 42.84375 
Q 18.109375 37.203125 18.109375 27.296875 
Q 18.109375 17.390625 22.1875 11.75 
Q 26.265625 6.109375 33.40625 6.109375 
Q 40.53125 6.109375 44.609375 11.75 
Q 48.6875 17.390625 48.6875 27.296875 
z
" id="DejaVuSans-112"/>
      <path d="M 54.890625 33.015625 
L 54.890625 0 
L 45.90625 0 
L 45.90625 32.71875 
Q 45.90625 40.484375 42.875 44.328125 
Q 39.84375 48.1875 33.796875 48.1875 
Q 26.515625 48.1875 22.3125 43.546875 
Q 18.109375 38.921875 18.109375 30.90625 
L 18.109375 0 
L 9.078125 0 
L 9.078125 75.984375 
L 18.109375 75.984375 
L 18.109375 46.1875 
Q 21.34375 51.125 25.703125 53.5625 
Q 30.078125 56 35.796875 56 
Q 45.21875 56 50.046875 50.171875 
Q 54.890625 44.34375 54.890625 33.015625 
z
" id="DejaVuSans-104"/>
      <path d="M 9.421875 75.984375 
L 18.40625 75.984375 
L 18.40625 0 
L 9.421875 0 
z
" id="DejaVuSans-108"/>
      <path d="M 45.40625 27.984375 
Q 45.40625 37.75 41.375 43.109375 
Q 37.359375 48.484375 30.078125 48.484375 
Q 22.859375 48.484375 18.828125 43.109375 
Q 14.796875 37.75 14.796875 27.984375 
Q 14.796875 18.265625 18.828125 12.890625 
Q 22.859375 7.515625 30.078125 7.515625 
Q 37.359375 7.515625 41.375 12.890625 
Q 45.40625 18.265625 45.40625 27.984375 
z
M 54.390625 6.78125 
Q 54.390625 -7.171875 48.1875 -13.984375 
Q 42 -20.796875 29.203125 -20.796875 
Q 24.46875 -20.796875 20.265625 -20.09375 
Q 16.0625 -19.390625 12.109375 -17.921875 
L 12.109375 -9.1875 
Q 16.0625 -11.328125 19.921875 -12.34375 
Q 23.78125 -13.375 27.78125 -13.375 
Q 36.625 -13.375 41.015625 -8.765625 
Q 45.40625 -4.15625 45.40625 5.171875 
L 45.40625 9.625 
Q 42.625 4.78125 38.28125 2.390625 
Q 33.9375 0 27.875 0 
Q 17.828125 0 11.671875 7.65625 
Q 5.515625 15.328125 5.515625 27.984375 
Q 5.515625 40.671875 11.671875 48.328125 
Q 17.828125 56 27.875 56 
Q 33.9375 56 38.28125 53.609375 
Q 42.625 51.21875 45.40625 46.390625 
L 45.40625 54.6875 
L 54.390625 54.6875 
z
" id="DejaVuSans-103"/>
      <path d="M 32.171875 -5.078125 
Q 28.375 -14.84375 24.75 -17.8125 
Q 21.140625 -20.796875 15.09375 -20.796875 
L 7.90625 -20.796875 
L 7.90625 -13.28125 
L 13.1875 -13.28125 
Q 16.890625 -13.28125 18.9375 -11.515625 
Q 21 -9.765625 23.484375 -3.21875 
L 25.09375 0.875 
L 2.984375 54.6875 
L 12.5 54.6875 
L 29.59375 11.921875 
L 46.6875 54.6875 
L 56.203125 54.6875 
z
" id="DejaVuSans-121"/>
     </defs>
     <g style="fill:#262626;" transform="translate(246.61342 94.499009)scale(0.1 -0.1)">
      <use xlink:href="#DejaVuSans-77"/>
      <use x="86.279297" xlink:href="#DejaVuSans-117"/>
      <use x="149.658203" xlink:href="#DejaVuSans-116"/>
      <use x="188.867188" xlink:href="#DejaVuSans-97"/>
      <use x="250.146484" xlink:href="#DejaVuSans-110"/>
      <use x="313.525391" xlink:href="#DejaVuSans-116"/>
      <use x="352.734375" xlink:href="#DejaVuSans-32"/>
      <use x="384.521484" xlink:href="#DejaVuSans-109"/>
      <use x="481.933594" xlink:href="#DejaVuSans-111"/>
      <use x="543.115234" xlink:href="#DejaVuSans-114"/>
      <use x="584.228516" xlink:href="#DejaVuSans-112"/>
      <use x="647.705078" xlink:href="#DejaVuSans-104"/>
      <use x="711.083984" xlink:href="#DejaVuSans-111"/>
      <use x="772.265625" xlink:href="#DejaVuSans-108"/>
      <use x="800.048828" xlink:href="#DejaVuSans-111"/>
      <use x="861.230469" xlink:href="#DejaVuSans-103"/>
      <use x="924.707031" xlink:href="#DejaVuSans-121"/>
     </g>
    </g>
    <g id="PathCollection_4">
     <g>
      <use style="fill:#000080;" x="228.61342" xlink:href="#med751b82ef" y="106.552134"/>
     </g>
    </g>
    <g id="text_17">
     <!-- Normal morphology -->
     <defs>
      <path d="M 9.8125 72.90625 
L 23.09375 72.90625 
L 55.421875 11.921875 
L 55.421875 72.90625 
L 64.984375 72.90625 
L 64.984375 0 
L 51.703125 0 
L 19.390625 60.984375 
L 19.390625 0 
L 9.8125 0 
z
" id="DejaVuSans-78"/>
     </defs>
     <g style="fill:#262626;" transform="translate(246.61342 109.177134)scale(0.1 -0.1)">
      <use xlink:href="#DejaVuSans-78"/>
      <use x="74.804688" xlink:href="#DejaVuSans-111"/>
      <use x="135.986328" xlink:href="#DejaVuSans-114"/>
      <use x="177.083984" xlink:href="#DejaVuSans-109"/>
      <use x="274.496094" xlink:href="#DejaVuSans-97"/>
      <use x="335.775391" xlink:href="#DejaVuSans-108"/>
      <use x="363.558594" xlink:href="#DejaVuSans-32"/>
      <use x="395.345703" xlink:href="#DejaVuSans-109"/>
      <use x="492.757812" xlink:href="#DejaVuSans-111"/>
      <use x="553.939453" xlink:href="#DejaVuSans-114"/>
      <use x="595.052734" xlink:href="#DejaVuSans-112"/>
      <use x="658.529297" xlink:href="#DejaVuSans-104"/>
      <use x="721.908203" xlink:href="#DejaVuSans-111"/>
      <use x="783.089844" xlink:href="#DejaVuSans-108"/>
      <use x="810.873047" xlink:href="#DejaVuSans-111"/>
      <use x="872.054688" xlink:href="#DejaVuSans-103"/>
      <use x="935.53125" xlink:href="#DejaVuSans-121"/>
     </g>
    </g>
   </g>
  </g>
  <g id="axes_2">
   <g id="patch_6">
    <path d="M 47.72 67.137143 
L 355.086857 67.137143 
L 355.086857 13.32 
L 47.72 13.32 
z
" style="fill:#ffffff;"/>
   </g>
   <g id="matplotlib.axis_3">
    <g id="xtick_6"/>
    <g id="xtick_7"/>
    <g id="xtick_8"/>
    <g id="xtick_9"/>
    <g id="xtick_10"/>
   </g>
   <g id="matplotlib.axis_4">
    <g id="ytick_9"/>
    <g id="ytick_10"/>
   </g>
   <g id="line2d_1">
    <path clip-path="url(#pf3c969d772)" d="M 61.691221 67.081649 
L 69.932079 66.933494 
L 76.112723 66.584445 
L 80.233153 66.141397 
L 84.353582 65.451646 
L 88.474011 64.447865 
L 92.594441 63.074626 
L 96.71487 61.296274 
L 100.835299 59.099131 
L 104.955729 56.48981 
L 109.076158 53.495181 
L 113.196587 50.168597 
L 119.377231 44.765364 
L 125.557876 39.298225 
L 129.678305 35.891508 
L 133.798734 32.829479 
L 137.919164 30.174148 
L 142.039593 27.918487 
L 146.160022 26.008727 
L 150.280452 24.382271 
L 154.400881 23.004984 
L 158.52131 21.893875 
L 162.64174 21.118421 
L 164.701954 20.888371 
L 166.762169 20.782162 
L 168.822384 20.813205 
L 170.882598 20.993321 
L 172.942813 21.332048 
L 175.003028 21.836131 
L 177.063242 22.509216 
L 179.123457 23.3517 
L 181.183672 24.360675 
L 183.243886 25.529919 
L 185.304101 26.849903 
L 189.42453 29.887535 
L 193.54496 33.333042 
L 205.906248 44.20293 
L 210.026677 47.385089 
L 214.147106 50.150978 
L 218.267536 52.479089 
L 222.387965 54.394871 
L 226.508394 55.943135 
L 230.628824 57.163267 
L 234.749253 58.076036 
L 238.869682 58.685824 
L 242.990112 58.996939 
L 247.110541 59.037274 
L 253.291185 58.759437 
L 259.471829 58.467183 
L 263.592258 58.507279 
L 267.712688 58.856438 
L 271.833117 59.53972 
L 275.953546 60.506024 
L 284.194405 62.835627 
L 290.375049 64.45161 
L 294.495478 65.311227 
L 298.615908 65.966394 
L 302.736337 66.43004 
L 308.916981 66.84078 
L 317.15784 67.056816 
L 323.338484 67.088562 
L 323.338484 67.088562 
" style="fill:none;stroke:#87cefa;stroke-linecap:round;stroke-width:1.5;"/>
   </g>
   <g id="line2d_2">
    <path clip-path="url(#pf3c969d772)" d="M 72.103739 67.03343 
L 78.458351 66.840269 
L 82.694759 66.521563 
L 86.931167 65.941037 
L 91.167574 64.976946 
L 93.285778 64.312522 
L 95.403982 63.509402 
L 97.522186 62.559284 
L 99.64039 61.459053 
L 101.758594 60.211782 
L 105.995002 57.322057 
L 110.23141 54.044154 
L 118.704225 47.227971 
L 122.940633 44.088641 
L 127.177041 41.238941 
L 133.531653 37.334061 
L 139.886264 33.374993 
L 144.122672 30.458854 
L 150.477284 25.658631 
L 154.713692 22.438686 
L 158.9501 19.56352 
L 161.068304 18.362056 
L 163.186507 17.368139 
L 165.304711 16.610833 
L 167.422915 16.110834 
L 169.541119 15.880408 
L 171.659323 15.92423 
L 173.777527 16.240846 
L 175.895731 16.824343 
L 178.013935 17.665801 
L 180.132139 18.754183 
L 182.250343 20.076461 
L 184.368547 21.616979 
L 186.486751 23.356257 
L 190.723158 27.325885 
L 197.07777 33.942908 
L 201.314178 38.24349 
L 203.432382 40.217377 
L 205.550586 42.024666 
L 207.66879 43.643207 
L 209.786994 45.064916 
L 211.905198 46.29609 
L 214.023401 47.356149 
L 218.259809 49.08921 
L 230.969033 53.658777 
L 245.79646 59.718102 
L 250.032868 61.108643 
L 254.269276 62.279423 
L 258.505684 63.260168 
L 262.742092 64.07133 
L 266.978499 64.704555 
L 271.214907 65.129805 
L 275.451315 65.320698 
L 279.687723 65.282221 
L 286.042335 64.921152 
L 294.51515 64.424954 
L 298.751558 64.39842 
L 302.987966 64.577391 
L 309.342578 65.152644 
L 322.051801 66.45874 
L 328.406413 66.836665 
L 336.879229 67.043233 
L 341.115636 67.052243 
L 341.115636 67.052243 
" style="fill:none;stroke:#000080;stroke-linecap:round;stroke-width:1.5;"/>
   </g>
   <g id="patch_7">
    <path d="M 47.72 67.137143 
L 355.086857 67.137143 
" style="fill:none;stroke:#262626;stroke-linecap:square;stroke-linejoin:miter;stroke-width:0.8;"/>
   </g>
  </g>
  <g id="axes_3">
   <g id="patch_8">
    <path d="M 365.685714 390.04 
L 418.68 390.04 
L 418.68 77.900571 
L 365.685714 77.900571 
z
" style="fill:#ffffff;"/>
   </g>
   <g id="matplotlib.axis_5">
    <g id="xtick_11"/>
    <g id="xtick_12"/>
   </g>
   <g id="matplotlib.axis_6">
    <g id="ytick_11"/>
    <g id="ytick_12"/>
    <g id="ytick_13"/>
    <g id="ytick_14"/>
    <g id="ytick_15"/>
    <g id="ytick_16"/>
    <g id="ytick_17"/>
    <g id="ytick_18"/>
   </g>
   <g id="line2d_3">
    <path clip-path="url(#pd6fd94fbaa)" d="M 365.747618 364.663968 
L 365.848732 356.078921 
L 366.113246 349.640136 
L 366.468549 345.347612 
L 367.061484 341.055089 
L 368.004041 336.762565 
L 368.648204 334.616303 
L 369.431992 332.470042 
L 370.373997 330.32378 
L 371.492105 328.177518 
L 372.802477 326.031256 
L 374.318399 323.884995 
L 376.049034 321.738733 
L 377.99815 319.592471 
L 380.162917 317.44621 
L 382.532877 315.299948 
L 387.804342 311.007424 
L 393.558589 306.714901 
L 402.250143 300.276116 
L 404.936429 298.129854 
L 407.422666 295.983592 
L 409.658449 293.83733 
L 411.601101 291.691069 
L 413.217649 289.544807 
L 414.486194 287.398545 
L 415.39656 285.252284 
L 415.950205 283.106022 
L 416.159402 280.95976 
L 416.045797 278.813498 
L 415.638498 276.667237 
L 414.971872 274.520975 
L 414.083269 272.374713 
L 413.010861 270.228451 
L 410.460552 265.935928 
L 407.581969 261.643404 
L 398.696605 248.765834 
L 396.000209 244.473311 
L 393.554097 240.180787 
L 391.406545 235.888264 
L 389.581242 231.59574 
L 388.067244 227.303217 
L 386.815808 223.010693 
L 385.25312 216.571908 
L 382.762607 205.840599 
L 380.46175 197.255552 
L 376.906954 184.377982 
L 375.407752 177.939197 
L 374.192761 171.500412 
L 373.234105 165.061626 
L 371.677959 152.184056 
L 370.520674 143.599009 
L 368.456786 130.721439 
L 367.224817 122.136392 
L 366.554197 115.697606 
L 366.121398 109.258821 
L 365.833116 100.673774 
L 365.747433 92.088727 
L 365.747433 92.088727 
" style="fill:none;stroke:#87cefa;stroke-linecap:round;stroke-width:1.5;"/>
   </g>
   <g id="line2d_4">
    <path clip-path="url(#pd6fd94fbaa)" d="M 365.758857 375.851844 
L 365.835357 365.129081 
L 366.117475 356.550871 
L 366.573557 350.117213 
L 367.06164 345.828108 
L 367.751493 341.539003 
L 368.697818 337.249898 
L 369.960651 332.960793 
L 371.601851 328.671688 
L 373.678691 324.382583 
L 376.233936 320.093478 
L 379.282869 315.804373 
L 382.799377 311.515267 
L 386.70475 307.226162 
L 395.089544 298.647952 
L 399.164334 294.358847 
L 402.864007 290.069742 
L 404.509611 287.925189 
L 405.991161 285.780637 
L 407.292884 283.636084 
L 408.403799 281.491532 
L 409.318004 279.346979 
L 410.034711 277.202427 
L 410.558016 275.057874 
L 410.896414 272.913321 
L 411.062099 270.768769 
L 411.070074 268.624216 
L 410.937131 266.479664 
L 410.318115 262.190559 
L 409.334702 257.901454 
L 408.082408 253.612348 
L 406.606324 249.323243 
L 404.901875 245.034138 
L 402.932204 240.745033 
L 400.656612 236.455928 
L 398.06091 232.166823 
L 395.180025 227.877718 
L 384.557705 212.86585 
L 382.021039 208.576745 
L 380.92332 206.432192 
L 379.95294 204.28764 
L 379.115445 202.143087 
L 378.412556 199.998535 
L 377.842244 197.853982 
L 377.398936 195.709429 
L 376.855205 191.420324 
L 376.67914 187.131219 
L 376.808706 180.697562 
L 376.971 174.263904 
L 376.8785 169.974799 
L 376.519424 165.685694 
L 375.856432 161.396589 
L 374.904795 157.107483 
L 373.726835 152.818378 
L 369.250718 137.80651 
L 368.237934 133.517405 
L 367.428873 129.2283 
L 366.820889 124.939195 
L 366.390488 120.65009 
L 366.002368 114.216432 
L 365.789399 105.638222 
L 365.769402 103.49367 
L 365.769402 103.49367 
" style="fill:none;stroke:#000080;stroke-linecap:round;stroke-width:1.5;"/>
   </g>
   <g id="patch_9">
    <path d="M 365.685714 390.04 
L 365.685714 77.900571 
" style="fill:none;stroke:#262626;stroke-linecap:square;stroke-linejoin:miter;stroke-width:0.8;"/>
   </g>
   <g id="text_18">
    <!-- Outlier Detection results after thresholding -->
    <defs>
     <path d="M 39.40625 66.21875 
Q 28.65625 66.21875 22.328125 58.203125 
Q 16.015625 50.203125 16.015625 36.375 
Q 16.015625 22.609375 22.328125 14.59375 
Q 28.65625 6.59375 39.40625 6.59375 
Q 50.140625 6.59375 56.421875 14.59375 
Q 62.703125 22.609375 62.703125 36.375 
Q 62.703125 50.203125 56.421875 58.203125 
Q 50.140625 66.21875 39.40625 66.21875 
z
M 39.40625 74.21875 
Q 54.734375 74.21875 63.90625 63.9375 
Q 73.09375 53.65625 73.09375 36.375 
Q 73.09375 19.140625 63.90625 8.859375 
Q 54.734375 -1.421875 39.40625 -1.421875 
Q 24.03125 -1.421875 14.8125 8.828125 
Q 5.609375 19.09375 5.609375 36.375 
Q 5.609375 53.65625 14.8125 63.9375 
Q 24.03125 74.21875 39.40625 74.21875 
z
" id="DejaVuSans-79"/>
     <path d="M 9.421875 54.6875 
L 18.40625 54.6875 
L 18.40625 0 
L 9.421875 0 
z
M 9.421875 75.984375 
L 18.40625 75.984375 
L 18.40625 64.59375 
L 9.421875 64.59375 
z
" id="DejaVuSans-105"/>
     <path d="M 56.203125 29.59375 
L 56.203125 25.203125 
L 14.890625 25.203125 
Q 15.484375 15.921875 20.484375 11.0625 
Q 25.484375 6.203125 34.421875 6.203125 
Q 39.59375 6.203125 44.453125 7.46875 
Q 49.3125 8.734375 54.109375 11.28125 
L 54.109375 2.78125 
Q 49.265625 0.734375 44.1875 -0.34375 
Q 39.109375 -1.421875 33.890625 -1.421875 
Q 20.796875 -1.421875 13.15625 6.1875 
Q 5.515625 13.8125 5.515625 26.8125 
Q 5.515625 40.234375 12.765625 48.109375 
Q 20.015625 56 32.328125 56 
Q 43.359375 56 49.78125 48.890625 
Q 56.203125 41.796875 56.203125 29.59375 
z
M 47.21875 32.234375 
Q 47.125 39.59375 43.09375 43.984375 
Q 39.0625 48.390625 32.421875 48.390625 
Q 24.90625 48.390625 20.390625 44.140625 
Q 15.875 39.890625 15.1875 32.171875 
z
" id="DejaVuSans-101"/>
     <path d="M 19.671875 64.796875 
L 19.671875 8.109375 
L 31.59375 8.109375 
Q 46.6875 8.109375 53.6875 14.9375 
Q 60.6875 21.78125 60.6875 36.53125 
Q 60.6875 51.171875 53.6875 57.984375 
Q 46.6875 64.796875 31.59375 64.796875 
z
M 9.8125 72.90625 
L 30.078125 72.90625 
Q 51.265625 72.90625 61.171875 64.09375 
Q 71.09375 55.28125 71.09375 36.53125 
Q 71.09375 17.671875 61.125 8.828125 
Q 51.171875 0 30.078125 0 
L 9.8125 0 
z
" id="DejaVuSans-68"/>
     <path d="M 48.78125 52.59375 
L 48.78125 44.1875 
Q 44.96875 46.296875 41.140625 47.34375 
Q 37.3125 48.390625 33.40625 48.390625 
Q 24.65625 48.390625 19.8125 42.84375 
Q 14.984375 37.3125 14.984375 27.296875 
Q 14.984375 17.28125 19.8125 11.734375 
Q 24.65625 6.203125 33.40625 6.203125 
Q 37.3125 6.203125 41.140625 7.25 
Q 44.96875 8.296875 48.78125 10.40625 
L 48.78125 2.09375 
Q 45.015625 0.34375 40.984375 -0.53125 
Q 36.96875 -1.421875 32.421875 -1.421875 
Q 20.0625 -1.421875 12.78125 6.34375 
Q 5.515625 14.109375 5.515625 27.296875 
Q 5.515625 40.671875 12.859375 48.328125 
Q 20.21875 56 33.015625 56 
Q 37.15625 56 41.109375 55.140625 
Q 45.0625 54.296875 48.78125 52.59375 
z
" id="DejaVuSans-99"/>
     <path d="M 44.28125 53.078125 
L 44.28125 44.578125 
Q 40.484375 46.53125 36.375 47.5 
Q 32.28125 48.484375 27.875 48.484375 
Q 21.1875 48.484375 17.84375 46.4375 
Q 14.5 44.390625 14.5 40.28125 
Q 14.5 37.15625 16.890625 35.375 
Q 19.28125 33.59375 26.515625 31.984375 
L 29.59375 31.296875 
Q 39.15625 29.25 43.1875 25.515625 
Q 47.21875 21.78125 47.21875 15.09375 
Q 47.21875 7.46875 41.1875 3.015625 
Q 35.15625 -1.421875 24.609375 -1.421875 
Q 20.21875 -1.421875 15.453125 -0.5625 
Q 10.6875 0.296875 5.421875 2 
L 5.421875 11.28125 
Q 10.40625 8.6875 15.234375 7.390625 
Q 20.0625 6.109375 24.8125 6.109375 
Q 31.15625 6.109375 34.5625 8.28125 
Q 37.984375 10.453125 37.984375 14.40625 
Q 37.984375 18.0625 35.515625 20.015625 
Q 33.0625 21.96875 24.703125 23.78125 
L 21.578125 24.515625 
Q 13.234375 26.265625 9.515625 29.90625 
Q 5.8125 33.546875 5.8125 39.890625 
Q 5.8125 47.609375 11.28125 51.796875 
Q 16.75 56 26.8125 56 
Q 31.78125 56 36.171875 55.265625 
Q 40.578125 54.546875 44.28125 53.078125 
z
" id="DejaVuSans-115"/>
     <path d="M 37.109375 75.984375 
L 37.109375 68.5 
L 28.515625 68.5 
Q 23.6875 68.5 21.796875 66.546875 
Q 19.921875 64.59375 19.921875 59.515625 
L 19.921875 54.6875 
L 34.71875 54.6875 
L 34.71875 47.703125 
L 19.921875 47.703125 
L 19.921875 0 
L 10.890625 0 
L 10.890625 47.703125 
L 2.296875 47.703125 
L 2.296875 54.6875 
L 10.890625 54.6875 
L 10.890625 58.5 
Q 10.890625 67.625 15.140625 71.796875 
Q 19.390625 75.984375 28.609375 75.984375 
z
" id="DejaVuSans-102"/>
     <path d="M 45.40625 46.390625 
L 45.40625 75.984375 
L 54.390625 75.984375 
L 54.390625 0 
L 45.40625 0 
L 45.40625 8.203125 
Q 42.578125 3.328125 38.25 0.953125 
Q 33.9375 -1.421875 27.875 -1.421875 
Q 17.96875 -1.421875 11.734375 6.484375 
Q 5.515625 14.40625 5.515625 27.296875 
Q 5.515625 40.1875 11.734375 48.09375 
Q 17.96875 56 27.875 56 
Q 33.9375 56 38.25 53.625 
Q 42.578125 51.265625 45.40625 46.390625 
z
M 14.796875 27.296875 
Q 14.796875 17.390625 18.875 11.75 
Q 22.953125 6.109375 30.078125 6.109375 
Q 37.203125 6.109375 41.296875 11.75 
Q 45.40625 17.390625 45.40625 27.296875 
Q 45.40625 37.203125 41.296875 42.84375 
Q 37.203125 48.484375 30.078125 48.484375 
Q 22.953125 48.484375 18.875 42.84375 
Q 14.796875 37.203125 14.796875 27.296875 
z
" id="DejaVuSans-100"/>
    </defs>
    <g style="fill:#262626;" transform="translate(262.84442 71.900571)scale(0.12 -0.12)">
     <use xlink:href="#DejaVuSans-79"/>
     <use x="78.710938" xlink:href="#DejaVuSans-117"/>
     <use x="142.089844" xlink:href="#DejaVuSans-116"/>
     <use x="181.298828" xlink:href="#DejaVuSans-108"/>
     <use x="209.082031" xlink:href="#DejaVuSans-105"/>
     <use x="236.865234" xlink:href="#DejaVuSans-101"/>
     <use x="298.388672" xlink:href="#DejaVuSans-114"/>
     <use x="339.501953" xlink:href="#DejaVuSans-32"/>
     <use x="371.289062" xlink:href="#DejaVuSans-68"/>
     <use x="448.291016" xlink:href="#DejaVuSans-101"/>
     <use x="509.814453" xlink:href="#DejaVuSans-116"/>
     <use x="549.023438" xlink:href="#DejaVuSans-101"/>
     <use x="610.546875" xlink:href="#DejaVuSans-99"/>
     <use x="665.527344" xlink:href="#DejaVuSans-116"/>
     <use x="704.736328" xlink:href="#DejaVuSans-105"/>
     <use x="732.519531" xlink:href="#DejaVuSans-111"/>
     <use x="793.701172" xlink:href="#DejaVuSans-110"/>
     <use x="857.080078" xlink:href="#DejaVuSans-32"/>
     <use x="888.867188" xlink:href="#DejaVuSans-114"/>
     <use x="929.949219" xlink:href="#DejaVuSans-101"/>
     <use x="991.472656" xlink:href="#DejaVuSans-115"/>
     <use x="1043.572266" xlink:href="#DejaVuSans-117"/>
     <use x="1106.951172" xlink:href="#DejaVuSans-108"/>
     <use x="1134.734375" xlink:href="#DejaVuSans-116"/>
     <use x="1173.943359" xlink:href="#DejaVuSans-115"/>
     <use x="1226.042969" xlink:href="#DejaVuSans-32"/>
     <use x="1257.830078" xlink:href="#DejaVuSans-97"/>
     <use x="1319.109375" xlink:href="#DejaVuSans-102"/>
     <use x="1354.298828" xlink:href="#DejaVuSans-116"/>
     <use x="1393.507812" xlink:href="#DejaVuSans-101"/>
     <use x="1455.03125" xlink:href="#DejaVuSans-114"/>
     <use x="1496.144531" xlink:href="#DejaVuSans-32"/>
     <use x="1527.931641" xlink:href="#DejaVuSans-116"/>
     <use x="1567.140625" xlink:href="#DejaVuSans-104"/>
     <use x="1630.519531" xlink:href="#DejaVuSans-114"/>
     <use x="1671.601562" xlink:href="#DejaVuSans-101"/>
     <use x="1733.125" xlink:href="#DejaVuSans-115"/>
     <use x="1785.224609" xlink:href="#DejaVuSans-104"/>
     <use x="1848.603516" xlink:href="#DejaVuSans-111"/>
     <use x="1909.785156" xlink:href="#DejaVuSans-108"/>
     <use x="1937.568359" xlink:href="#DejaVuSans-100"/>
     <use x="2001.044922" xlink:href="#DejaVuSans-105"/>
     <use x="2028.828125" xlink:href="#DejaVuSans-110"/>
     <use x="2092.207031" xlink:href="#DejaVuSans-103"/>
    </g>
   </g>
  </g>
 </g>
 <defs>
  <clipPath id="p30ea0e8749">
   <rect height="312.139429" width="307.366857" x="47.72" y="77.900571"/>
  </clipPath>
  <clipPath id="pf3c969d772">
   <rect height="53.817143" width="307.366857" x="47.72" y="13.32"/>
  </clipPath>
  <clipPath id="pd6fd94fbaa">
   <rect height="312.139429" width="52.994286" x="365.685714" y="77.900571"/>
  </clipPath>
 </defs>
</svg>
